<svg xmlns="http://www.w3.org/2000/svg" version="1.1" xmlns:xlink="http://www.w3.org/1999/xlink" width="512" height="512" x="0" y="0" viewBox="0 0 512 512" style="enable-background:new 0 0 512 512" xml:space="preserve" class=""><g><path fill="#fdce06" d="M194.045 228.698c29.646 32.43 61.575 63.435 95.643 93.159 20.526 17.921 51.541 16.698 70.799-2.518 10.13-10.108 23.393-15.235 36.726-15.17 13.332-.076 26.592 5.04 36.712 15.138l28.294 28.233c20.311 20.268 20.297 52.994-.032 73.279-27.46 27.401-63.115 42.356-99.406 44.291-36.292 2.079-73.291-8.792-103.582-33.039-66.143-52.903-125.154-109.936-175.893-171.811-49.528-60.38-44.928-148.459 10.422-203.69l1.712-1.708c20.329-20.285 53.126-20.299 73.438-.031l28.294 28.233c20.311 20.268 20.297 52.994-.032 73.279l-1.069 1.067c-19.544 19.501-20.555 50.948-2.026 71.288z" opacity="1" data-original="#fdce06" class=""></path><g fill="#3e3e3e"><path d="M431.394 317.914c-22.958-22.902-60.153-22.911-83.139.027-16.73 16.71-43.707 17.676-61.436 2.206-34.161-29.806-66.154-60.967-95.085-92.617-16.05-17.622-15.258-44.766 1.804-61.792l1.073-1.066c22.742-22.701 23.308-59.773.03-83.001l-28.294-28.237c-22.92-22.873-60.219-22.853-83.139.034l-1.713 1.71c-58.157 58.03-62.834 149.561-10.88 212.901 49.531 60.404 109.052 118.548 176.913 172.816 63.086 50.511 154.648 45.603 212.13-11.748 23.007-22.958 23.068-60.006.03-83.001zm18.561 101.509c-52.792 52.674-136.552 56.624-193.848 10.749-67.113-53.671-125.951-111.138-174.874-170.797C33.784 201.519 38.066 117.914 91.197 64.9l1.713-1.71c17.532-17.499 46.127-17.61 63.736-.034l28.294 28.237c17.509 17.467 17.736 45.831-.03 63.555l-1.073 1.066c-22.276 22.229-23.265 57.708-2.25 80.775.003 0 .007.007.007.007 29.283 32.026 61.648 63.555 96.195 93.697 23.127 20.197 58.345 18.943 80.165-2.83 16.463-16.425 44.928-18.795 63.74-.027l28.291 28.23c17.627 17.594 17.632 45.937-.03 63.557zM421.959 222.474c0 3.795 3.074 6.866 6.866 6.866s6.867-3.071 6.867-6.866c0-83.933-68.293-152.216-152.233-152.216-3.792 0-6.866 3.071-6.866 6.866s3.074 6.866 6.866 6.866c76.37.001 138.5 62.121 138.5 138.484z" fill="#fdce06" opacity="1" data-original="#3e3e3e" class=""></path><path d="M365.344 222.474c0 3.795 3.074 6.866 6.866 6.866s6.866-3.071 6.866-6.866c0-52.712-42.895-95.601-95.618-95.601-3.792 0-6.866 3.071-6.866 6.866s3.074 6.867 6.866 6.867c45.153 0 81.886 36.726 81.886 81.868zM276.596 190.348a6.865 6.865 0 0 0 6.866 6.867c13.931 0 25.263 11.332 25.263 25.267 0 3.795 3.075 6.867 6.867 6.867s6.866-3.071 6.866-6.867c0-21.505-17.495-39-38.996-39a6.863 6.863 0 0 0-6.866 6.866z" fill="#fdce06" opacity="1" data-original="#3e3e3e" class=""></path></g></g></svg>