<svg xmlns="http://www.w3.org/2000/svg" version="1.1" xmlns:xlink="http://www.w3.org/1999/xlink" width="512" height="512" x="0" y="0" viewBox="0 0 512 512" style="enable-background:new 0 0 512 512" xml:space="preserve" class=""><g><circle cx="256" cy="256" r="256" fill="#ffde55" opacity="1" data-original="#ffea71" class=""></circle><path fill="#ffb655" d="m409.245 148.782-47.235-47.235-43.038 29.378-46.593-46.593L55.572 374.175l126.98 127.112C205.82 508.245 230.469 512 256 512c141.385 0 256-114.615 256-256 0-15.375-1.358-30.433-3.957-45.063l-66.769-66.769z" opacity="1" data-original="#f9c215" class=""></path><path fill="#4fba6f" d="M180.243 227.1s1.355-107.822-109.517-82.932c0 0-1.253 125.771 109.517 82.932z" opacity="1" data-original="#518e51" class=""></path><path fill="#4fba6f" d="M234.729 255.961s58.056-125.479-84.738-154.414c-.001-.001-67.336 146.537 84.738 154.414z" opacity="1" data-original="#79ba70" class=""></path><path fill="#4fba6f" d="M331.757 227.1s-1.355-107.822 109.517-82.932c0 0 1.253 125.771-109.517 82.932z" opacity="1" data-original="#356d52" class=""></path><path fill="#4fba6f" d="M277.271 255.961s-58.056-125.479 84.738-154.414c.001-.001 67.336 146.537-84.738 154.414z" opacity="1" data-original="#518e51" class=""></path><path fill="#4fba6f" d="M256 68.797s-130.516 105.223 0 182.588l37.322-86.204z" opacity="1" data-original="#518e51" class=""></path><path fill="#4fba6f" d="M256 68.797s130.516 105.223 0 182.588z" opacity="1" data-original="#356d52" class=""></path><path fill="#ffffff" d="M256 219.838H89.418c-26.161 0-47.369 21.208-47.369 47.369v73.83c0 26.161 21.208 47.369 47.369 47.369H256l26.278-100.039z" opacity="1" data-original="#ffffff" class=""></path><path fill="#e5e5e5" d="M422.582 219.838H256v168.568h166.582c26.161 0 47.369-21.208 47.369-47.369v-73.83c.001-26.162-21.207-47.369-47.369-47.369z" opacity="1" data-original="#e5e5e5" class=""></path><path fill="#4fba6f" d="m256 281.984 7.278-8.901L256 260.672h-36.45v86.899H256l6.249-10.656L256 326.26h-15.138v-11.482H256l5.231-10.655L256 293.466h-15.138v-11.482z" opacity="1" data-original="#79ba70" class=""></path><g fill="#518e51"><path d="M256 260.672h12.498v21.312H256zM256 293.466h10.46v21.312H256zM256 326.26h12.498v21.312H256z" fill="#4fba6f" opacity="1" data-original="#518e51" class=""></path></g><path fill="#4fba6f" d="M396.582 260.672v31.719H372.33v-31.719h-21.207v86.897h21.207v-33.971h24.252v33.971h21.207v-86.897z" opacity="1" data-original="#518e51" class=""></path><path fill="#4fba6f" d="M189.599 313.869c10.439-4.247 17.565-14.26 17.565-25.522 0-15.261-12.849-27.676-28.642-27.676h-28.081v86.898h21.207v-21.141l15.167 21.141h26.631zm-11.077-19.015h-6.782l-.038-12.975h6.82c3.961 0 7.435 3.023 7.435 6.469 0 3.466-3.474 6.506-7.435 6.506zM142.093 281.963v-21.291H94.211v86.899h21.291v-33.425h24.479v-21.291h-24.479v-10.892z" opacity="1" data-original="#79ba70" class=""></path><path fill="#4fba6f" d="M321.363 294.692c-7.615-2.809-14.744-5.861-17.4-7.019-.588-.603-.633-1.349-.554-1.896.126-.877.755-2.473 3.549-3.314 8.029-2.417 15.819 3.697 15.831 3.706l8.091 6.802 13.646-16.234-8.114-6.82c-.66-.556-16.376-13.542-35.571-7.759-9.97 3.003-17.029 10.898-18.422 20.605-1.316 9.165 2.659 17.983 10.375 23.013.468.305.963.575 1.471.802a362.2 362.2 0 0 0 19.761 8.013c4.749 1.752 7.464 4.157 7.085 6.279-.412 2.305-3.81 5.497-9.121 5.497-5.865 0-11.485-2.338-15.034-6.254l-7.12-7.857-15.715 14.241 7.121 7.857c7.501 8.278 18.997 13.221 30.749 13.221 14.763 0 27.659-9.878 29.997-22.977 1.805-10.116-2.665-23.282-20.625-29.906z" opacity="1" data-original="#518e51" class=""></path></g></svg>