<svg xmlns="http://www.w3.org/2000/svg" version="1.1" xmlns:xlink="http://www.w3.org/1999/xlink" width="512" height="512" x="0" y="0" viewBox="0 0 58 58" style="enable-background:new 0 0 512 512" xml:space="preserve" class=""><g><g fill="none" fill-rule="evenodd" transform="translate(0 -1)"><path fill="#4fba6f" d="m58 2.273-.5 6.442a1.39 1.39 0 0 1-2.37.881l-1.45-1.451-9.642 9.655a4.006 4.006 0 0 1-5.659 0l-4.463-4.465a1 1 0 0 0-1.414 0L17.831 28.012a4 4 0 0 1-5.66 0l-2.463-2.464a1 1 0 0 0-1.413 0l-4.883 4.875c-.783.77-2.037.77-2.82 0a1.977 1.977 0 0 1 0-2.821l5.58-5.592a4 4 0 0 1 5.659 0L15 25.181 30.38 9.8a4 4 0 0 1 5.659 0l4.461 4.46a1 1 0 0 0 1.415 0l8.942-8.946-1.45-1.45a1.385 1.385 0 0 1 .88-2.361L56.737 1A1.189 1.189 0 0 1 58 2.273z" opacity="1" data-original="#4fba6f" class=""></path><rect width="16" height="4" x="1" y="55" fill="#ffb655" rx="2" opacity="1" data-original="#f0c419" class=""></rect><rect width="16" height="4" x="21" y="55" fill="#ffb655" rx="2" opacity="1" data-original="#f0c419" class=""></rect><rect width="16" height="4" x="21" y="51" fill="#ffde55" rx="2" opacity="1" data-original="#f3d55b" class=""></rect><rect width="16" height="4" x="21" y="47" fill="#ffb655" rx="2" opacity="1" data-original="#f0c419" class=""></rect><rect width="16" height="4" x="41" y="55" fill="#ffb655" rx="2" opacity="1" data-original="#f0c419" class=""></rect><circle cx="29" cy="38" r="9" fill="#ffde55" opacity="1" data-original="#f3d55b" class=""></circle><rect width="16" height="4" x="41" y="51" fill="#ffde55" rx="2" opacity="1" data-original="#f3d55b" class=""></rect><rect width="16" height="4" x="41" y="47" fill="#ffb655" rx="2" opacity="1" data-original="#f0c419" class=""></rect><rect width="16" height="4" x="41" y="43" fill="#ffde55" rx="2" opacity="1" data-original="#f3d55b" class=""></rect><rect width="16" height="4" x="41" y="39" fill="#ffb655" rx="2" opacity="1" data-original="#f0c419" class=""></rect><circle cx="49" cy="30" r="9" fill="#ffde55" opacity="1" data-original="#f3d55b" class=""></circle><circle cx="9" cy="46" r="9" fill="#ffde55" opacity="1" data-original="#f3d55b" class=""></circle><g fill="#b19046"><path d="M29 37a1 1 0 1 1 .867-1.5 1 1 0 1 0 1.731-1A3 3 0 0 0 30 33.2V33a1 1 0 0 0-2 0v.184A2.993 2.993 0 0 0 29 39a1 1 0 1 1-.867 1.5 1 1 0 0 0-1.731 1 3 3 0 0 0 1.6 1.3v.2a1 1 0 0 0 2 0v-.184A2.993 2.993 0 0 0 29 37zM52 32a3 3 0 0 0-3-3 1 1 0 1 1 .867-1.5 1 1 0 0 0 1.731-1A2.993 2.993 0 0 0 50 25.2V25a1 1 0 0 0-2 0v.184A2.993 2.993 0 0 0 49 31a1 1 0 1 1-.867 1.5 1 1 0 0 0-1.731 1c.363.61.93 1.07 1.6 1.3v.2a1 1 0 0 0 2 0v-.184A3 3 0 0 0 52 32zM9 45a1 1 0 1 1 .867-1.5 1 1 0 1 0 1.731-1A3 3 0 0 0 10 41.2V41a1 1 0 0 0-2 0v.184A2.993 2.993 0 0 0 9 47a1 1 0 1 1-.867 1.5 1 1 0 1 0-1.731 1 3 3 0 0 0 1.6 1.3v.2a1 1 0 0 0 2 0v-.184A2.993 2.993 0 0 0 9 45z" fill="#b19046" opacity="1" data-original="#b19046" class=""></path></g></g></g></svg>